<?xml version="1.0" encoding="UTF-8"?>
<svg id="Capa_1" data-name="Capa 1" xmlns="http://www.w3.org/2000/svg" viewBox="0 0 851.13 825.31">
  <defs>
    <style>
      .cls-1 {
        fill: #fff;
      }

      .cls-2 {
        fill: #1f2526;
      }

      .cls-3 {
        fill: #2871af;
      }

      .cls-4 {
        fill: #de4847;
      }

      .cls-5 {
        fill: #e79e38;
      }

      .cls-6 {
        fill: #5aa052;
      }
    </style>
  </defs>
  <polygon class="cls-1" points="47.83 104.63 817.16 111.97 809.16 609.97 582.5 592.63 491.02 669.97 373.83 679.3 268.5 594.63 31.16 594.63 47.83 104.63"/>
  <path class="cls-3" d="M287.28,74.22v53.27H55.93v456.08h225.33c.14,0,3.05,1.82,4.28,2.6,41.97,26.75,74.43,60.44,123.98,78.44,13.17,4.78,18.7,5.97,32.3,1.45,44.29-14.71,89.73-53.26,125.41-82.49h228.04V127.49h-260.05v-51.88s169.96-.12,172.29-.04c30.6.95,65.1-2.67,94.95-.1,24.64,2.12,44.54,24.03,48.54,47.61l.13,504c-1.13,22.41-27.66,48.74-50.01,48.74h-280.01l6.57,60.35c2.15,17.07,3.32,26.15,15.06,33.01,16.73,9.77,63-9.3,65.49,17.67,1.39,15.05,3.22,38.88-17.55,38.45h-332.74c-19.43-.17-17.56-23.16-16.24-37.14.73-7.79,5.28-15.24,13.66-16.22,29.29-3.44,55.41,12.85,64.76-24.9,5.56-22.47,7.22-48.12,8.68-71.23H48.79c-.85,0-12.17-3.5-14-4.19-20.53-7.72-31.62-24.47-34.72-45.84L0,128.08c-.29-24.43,25.26-53.86,50.08-53.86h237.2Z"/>
  <path class="cls-2" d="M658.4,86.35c2.35,2.35,4.61,7.15,4.4,10.54-3.71,79.35,4.75,162.88-.08,241.73-7.33,119.82-101.96,235.69-207.03,286.73-8.72,4.24-24.62,12.68-33.69,11.17-10.39-1.73-37.07-16.95-47.3-22.85-95.39-55.08-176.71-163.42-183.62-276.35-4.77-78,3.59-160.63-.06-239.12.74-20.2,28.98-17.44,44.47-20.5,66.45-13.13,128.5-38.88,184.63-76.54,4.26-2.25,7.42-.87,11.4.88,15.31,6.72,34.92,22.08,51.42,30.43,35.34,17.89,76.07,32.62,114.82,41.1,16.78,3.67,38.43,4.58,53.65,8.72,1.73.47,5.74,2.8,7,4.05ZM414.25,118.73c-56.21,7.6-72.08,86.04-22.17,115.05,60.65,35.26,129.28-35.8,84.63-92.43-14.3-18.14-40.04-25.66-62.46-22.62ZM422.09,272.1c-74.6,5.59-81.2,109.02-10.42,124,52.43,11.09,97.29-40.15,72.46-89.35-10.92-21.65-37.98-36.45-62.04-34.64ZM374.98,530.88c35.02,46.54,111.83,23.27,116.21-35.03,3.67-48.81-55.5-87.34-97.75-60.37-32.18,20.54-41.91,64.24-18.46,95.4Z"/>
  <path class="cls-6" d="M374.98,530.88c-23.44-31.15-13.72-74.86,18.46-95.4,42.26-26.97,101.42,11.56,97.75,60.37-4.38,58.31-81.19,81.57-116.21,35.03Z"/>
  <path class="cls-5" d="M422.09,272.1c24.07-1.8,51.12,13,62.04,34.64,24.83,49.2-20.03,100.45-72.46,89.35-70.78-14.98-64.18-118.41,10.42-124Z"/>
  <path class="cls-4" d="M414.25,118.73c22.42-3.03,48.16,4.49,62.46,22.62,44.65,56.63-23.98,127.69-84.63,92.43-49.91-29.02-34.04-107.45,22.17-115.05Z"/>
</svg>